# xmcd CD database file
#
# Track frame offsets:
#	150
#	26782
#	43449
#	64459
#	89234
#	111989
#	129844
#	157838
#	180938
#	205957
#	229175
#
# Disc length: 3350 seconds
#
# Revision: 0
# Processed by: cddbd v1.5.2PL0 Copyright (c) Steve Scherf et al.
# Submitted via: CDex 1.51
#
DISCID=9c0d140b
DTITLE=German Latin All Stars - Salsa en Clave - Clave Latina Production  Vol 1
DYEAR=2007
DGENRE=Salsa
TTITLE0=La Negra No Quiere
TTITLE1=Lloraras
TTITLE2=Hasta Que Te Conoci
TTITLE3=Cali Pachanguero
TTITLE4=Un Verano En Nueva York
TTITLE5=Don Goyo
TTITLE6=Yo Quisiera
TTITLE7=He Tratado
TTITLE8=Conciencia
TTITLE9=El Preso
TTITLE10=La Vida Es Un Carnaval
EXTD=YEAR: 2007
EXTT0=
EXTT1=
EXTT2=
EXTT3=
EXTT4=
EXTT5=
EXTT6=
EXTT7=
EXTT8=
EXTT9=
EXTT10=
PLAYORDER=
